<?xml version="1.0" encoding="UTF-8" standalone="no"?>
<svg width="236px" height="180px" viewBox="0 0 236 180" version="1.1" xmlns="http://www.w3.org/2000/svg" xmlns:xlink="http://www.w3.org/1999/xlink">
    <!-- Generator: Sketch 3.8.3 (29802) - http://www.bohemiancoding.com/sketch -->
    <title>B1</title>
    <desc>Created with Sketch.</desc>
    <defs>
        <rect id="path-1" x="0" y="0" width="236" height="180" rx="2"></rect>
        <mask id="mask-2" maskContentUnits="userSpaceOnUse" maskUnits="objectBoundingBox" x="0" y="0" width="236" height="180" fill="white">
            <use xlink:href="#path-1"></use>
        </mask>
        <rect id="path-3" x="0" y="0" width="65" height="58" rx="2"></rect>
        <mask id="mask-4" maskContentUnits="userSpaceOnUse" maskUnits="objectBoundingBox" x="0" y="0" width="65" height="58" fill="white">
            <use xlink:href="#path-3"></use>
        </mask>
        <rect id="path-5" x="0" y="0" width="65" height="58" rx="2"></rect>
        <mask id="mask-6" maskContentUnits="userSpaceOnUse" maskUnits="objectBoundingBox" x="0" y="0" width="65" height="58" fill="white">
            <use xlink:href="#path-5"></use>
        </mask>
        <ellipse id="path-7" cx="21" cy="21" rx="20.2207031" ry="20.5"></ellipse>
        <mask id="mask-8" maskContentUnits="userSpaceOnUse" maskUnits="objectBoundingBox" x="0" y="0" width="40.4414063" height="41" fill="white">
            <use xlink:href="#path-7"></use>
        </mask>
        <ellipse id="path-9" cx="21" cy="21" rx="11.7954102" ry="11.9583333"></ellipse>
        <mask id="mask-10" maskContentUnits="userSpaceOnUse" maskUnits="objectBoundingBox" x="0" y="0" width="23.5908203" height="23.9166667" fill="white">
            <use xlink:href="#path-9"></use>
        </mask>
        <ellipse id="path-11" cx="21" cy="21" rx="11.7954102" ry="11.9583333"></ellipse>
        <mask id="mask-12" maskContentUnits="userSpaceOnUse" maskUnits="objectBoundingBox" x="-8" y="-8" width="39.5908203" height="39.9166667">
            <rect x="1.20458984" y="1.04166667" width="39.5908203" height="39.9166667" fill="white"></rect>
            <use xlink:href="#path-11" fill="black"></use>
        </mask>
        <rect id="path-13" x="0" y="0" width="65" height="58" rx="2"></rect>
        <mask id="mask-14" maskContentUnits="userSpaceOnUse" maskUnits="objectBoundingBox" x="0" y="0" width="65" height="58" fill="white">
            <use xlink:href="#path-13"></use>
        </mask>
    </defs>
    <g id="Page-1" stroke="none" stroke-width="1" fill="none" fill-rule="evenodd">
        <g id="works" transform="translate(-189.000000, -820.000000)">
            <g id="section3" transform="translate(180.000000, 727.000000)">
                <g id="B1" transform="translate(9.000000, 93.000000)">
                    <g id="browser">
                        <use id="browser-bg" stroke="#C2C2C2" mask="url(#mask-2)" stroke-width="4" fill="#FFFFFF" xlink:href="#path-1"></use>
                        <polygon id="browser-line" fill="#C2C2C2" points="1 13 234 13 234 14 1 14"></polygon>
                        <g id="browser-ctrl" transform="translate(6.754139, 5.614378)" stroke="#C9C9C9" fill="#FFFFFF">
                            <circle id="Oval-1" cx="2" cy="2" r="2"></circle>
                            <circle id="Oval-1-Copy" cx="9.87982833" cy="2" r="2"></circle>
                            <circle id="Oval-1-Copy-2" cx="17.7596567" cy="2" r="2"></circle>
                        </g>
                    </g>
                    <g id="Group-3" transform="translate(12.000000, 36.000000)" fill="#D1D1D1">
                        <rect id="Rectangle-13" x="0" y="0" width="55" height="6"></rect>
                        <rect id="Rectangle-13-Copy" x="0" y="13" width="145.082031" height="3"></rect>
                        <rect id="Rectangle-13-Copy-2" x="0" y="19" width="145.082031" height="3"></rect>
                        <rect id="Rectangle-13-Copy-3" x="0" y="25" width="88" height="3"></rect>
                    </g>
                    <g id="Group-4" transform="translate(85.000000, 84.000000)">
                        <use id="Rectangle-10-Copy" stroke="#D1D1D1" mask="url(#mask-4)" stroke-width="2" fill="#FFFFFF" xlink:href="#path-3"></use>
                        <g id="Group-2" transform="translate(1.000000, 5.000000)">
                            <polyline id="Path-7" stroke="#D9D9D9" points="0.102050781 34.0625 8.31201172 40.8076172 15.8398438 32.1147461 22.5600586 16.9301758 28.1953125 24.9101563 36.640625 0.665039062 44.328125 24.3964844 51.2734375 34.9277344 60.4472656 29.5976563 63.0820313 34.0625"></polyline>
                            <circle id="Oval-13" fill="#CCCCCC" cx="44" cy="24" r="2"></circle>
                        </g>
                    </g>
                    <g id="Group-6" transform="translate(12.000000, 84.000000)">
                        <use id="Rectangle-10" stroke="#D1D1D1" mask="url(#mask-6)" stroke-width="2" fill="#FFFFFF" xlink:href="#path-5"></use>
                        <g id="Group-5" transform="translate(12.000000, 8.000000)">
                            <use id="Oval-11" stroke="#D9D9D9" mask="url(#mask-8)" stroke-width="2" xlink:href="#path-7"></use>
                            <use id="Oval-11" stroke="#D9D9D9" mask="url(#mask-10)" stroke-width="2" xlink:href="#path-9"></use>
                            <use id="Oval-11" stroke="#4ACDD9" mask="url(#mask-12)" stroke-width="16" stroke-dasharray="11,87.91999816894531" xlink:href="#path-11"></use>
                        </g>
                    </g>
                    <g id="Group" transform="translate(158.000000, 84.000000)">
                        <use id="Rectangle-10-Copy-2" stroke="#D1D1D1" mask="url(#mask-14)" stroke-width="2" fill="#FFFFFF" xlink:href="#path-13"></use>
                        <rect id="Rectangle-13-Copy-7" fill="#D9D9D9" x="0" y="14" width="65" height="1"></rect>
                        <rect id="Rectangle-13-Copy-8" fill="#D9D9D9" x="0" y="28" width="65" height="1"></rect>
                        <rect id="Rectangle-13-Copy-9" fill="#D9D9D9" x="0" y="43" width="65" height="1"></rect>
                        <rect id="Rectangle-22" fill="#D9D9D9" x="15" y="0" width="1" height="58"></rect>
                        <rect id="Rectangle-22-Copy" fill="#D9D9D9" x="32" y="0" width="1" height="58"></rect>
                        <rect id="Rectangle-22-Copy-2" fill="#D9D9D9" x="49" y="0" width="1" height="58"></rect>
                    </g>
                    <rect id="Rectangle-4" fill="#E6E6E6" x="2" y="14" width="232" height="10"></rect>
                </g>
            </g>
        </g>
    </g>
</svg>