<?xml version="1.0" encoding="UTF-8"?>
<svg width="214px" height="180px" viewBox="0 0 214 180" version="1.1" xmlns="http://www.w3.org/2000/svg" xmlns:xlink="http://www.w3.org/1999/xlink">
    <!-- Generator: Sketch 49.3 (51167) - http://www.bohemiancoding.com/sketch -->
    <title>B2</title>
    <desc>Created with Sketch.</desc>
    <defs>
        <rect id="path-1" x="0" y="0" width="127" height="180" rx="6.41729042"></rect>
        <rect id="path-2" x="0" y="0" width="54" height="116" rx="7.29237548"></rect>
        <path d="M0.798692392,30.1584327 L0.798692392,9.18951713 C0.798692392,4.13859698 4.89327219,0.0440171759 9.94419235,0.0440171759 L49.8103353,0.0440171759 C54.8612554,0.0440171759 58.9558352,4.13859698 58.9558352,9.18951713 L58.9558352,109.836812 C58.9558352,114.887733 54.8612554,118.982312 49.8103353,118.982312 L9.94419235,118.982312 C4.89327219,118.982312 0.798692392,114.887733 0.798692392,109.836812 L0.798692392,59.6220044 L0.479110409,59.6220044 C0.245991018,59.6220044 0.0570104113,59.4330238 0.0570104113,59.1999044 L0.0570104113,40.87346 C0.0570104113,40.6403407 0.245991018,40.4513601 0.479110409,40.4513601 L0.798692392,40.4513601 L0.798692392,38.1161707 L0.479110409,38.1161707 C0.245991018,38.1161707 0.0570104113,37.9271901 0.0570104113,37.6940707 L0.0570104113,30.5805327 C0.0570104113,30.3474133 0.245991018,30.1584327 0.479110409,30.1584327 L0.798692392,30.1584327 Z" id="path-3"></path>
    </defs>
    <g id="Desktop" stroke="none" stroke-width="1" fill="none" fill-rule="evenodd">
        <g id="works" transform="translate(-617.000000, -819.000000)">
            <g id="section3" transform="translate(180.000000, 727.000000)">
                <g id="B2" transform="translate(399.000000, 89.000000)">
                    <g id="ipad-copy" transform="translate(84.000000, 3.000000)">
                        <g id="Rectangle-33">
                            <use fill="#FFFFFF" fill-rule="evenodd" xlink:href="#path-1"></use>
                            <rect stroke="#C2C2C2" stroke-width="0.729237548" x="0.364618774" y="0.364618774" width="126.270762" height="179.270762" rx="6.41729042"></rect>
                        </g>
                        <rect id="Rectangle-34" stroke="#C2C2C2" stroke-width="0.729237548" x="7.45076584" y="15.2875551" width="112.098468" height="149.42489" rx="0.437542529"></rect>
                        <ellipse id="Oval-15" stroke="#979797" stroke-width="0.729237548" cx="63.4270953" cy="172.193652" rx="4.30147296" ry="4.28713693"></ellipse>
                        <rect id="Rectangle-46" stroke="#C2C2C2" stroke-width="0.980000019" x="58.1253846" y="6.35782608" width="12.7030769" height="1.95826089" rx="0.979130444"></rect>
                        <ellipse id="Oval-17" fill="#C2C2C2" cx="55.1961538" cy="7.3345089" rx="1" ry="1"></ellipse>
                    </g>
                    <g id="iphone-copy" transform="translate(198.000000, 67.000000)">
                        <g id="Rectangle-30">
                            <use fill="#FFFFFF" fill-rule="evenodd" xlink:href="#path-2"></use>
                            <rect stroke="#C2C2C2" stroke-width="0.729237548" x="0.364618774" y="0.364618774" width="53.2707625" height="115.270762" rx="7.29237548"></rect>
                        </g>
                        <rect id="Rectangle-32" stroke="#C2C2C2" stroke-width="0.729237548" x="3.56265395" y="15.3641948" width="46.8746921" height="85.2716104" rx="0.583390038"></rect>
                        <ellipse id="Oval-14" stroke="#C2C2C2" stroke-width="0.729237548" cx="26.9262295" cy="108.242038" rx="4.57800418" ry="4.5856997"></ellipse>
                        <rect id="Rectangle-31" stroke="#C2C2C2" stroke-width="0.729237548" x="21.2353812" y="8.48283885" width="11.5292375" height="1.7122884" rx="0.856144198"></rect>
                    </g>
                    <g id="White-Outline-Mockup" transform="translate(38.000000, 64.000000)">
                        <g id="Body">
                            <use fill="#FFFFFF" fill-rule="evenodd" xlink:href="#path-3"></use>
                            <path stroke="#C2C2C2" stroke-width="0.686000013" d="M1.1416924,9.18951713 L1.1416924,30.5014327 L0.479110409,30.5014327 C0.43542469,30.5014327 0.400010418,30.5368469 0.400010418,30.5805327 L0.400010418,37.6940707 C0.400010418,37.7377564 0.43542469,37.7731707 0.479110409,37.7731707 L1.1416924,37.7731707 L1.1416924,40.7943601 L0.479110409,40.7943601 C0.43542469,40.7943601 0.400010418,40.8297743 0.400010418,40.87346 L0.400010418,59.1999044 C0.400010418,59.2435902 0.43542469,59.2790044 0.479110409,59.2790044 L1.1416924,59.2790044 L1.1416924,109.836812 C1.1416924,114.698299 5.08270587,118.639312 9.94419235,118.639312 L49.8103353,118.639312 C54.6718218,118.639312 58.6128352,114.698299 58.6128352,109.836812 L58.6128352,9.18951713 C58.6128352,4.32803065 54.6718218,0.387017183 49.8103353,0.387017183 L9.94419235,0.387017183 C5.08270587,0.387017183 1.1416924,4.32803065 1.1416924,9.18951713 Z"></path>
                        </g>
                        <rect id="Screen-Area" stroke="#C2C2C2" stroke-width="0.686000013" x="4.64916954" y="14.2600099" width="50.4507833" height="90.7581103" rx="0.140699999"></rect>
                        <g id="Group-31" transform="translate(11.141130, 0.281070)">
                            <g id="Group-28"></g>
                        </g>
                        <g id="Mic-and-Camera" transform="translate(19.603320, 7.523313)" stroke="#C2C2C2" stroke-width="0.5">
                            <ellipse id="Oval-9" cx="0.953624496" cy="1.06359951" rx="1" ry="1"></ellipse>
                            <rect id="Rectangle-8" x="5.27800675" y="0.262271063" width="10.1672269" height="1.58664907" rx="0.793324534"></rect>
                        </g>
                        <rect id="Rectangle-6-Copy" stroke="#C4C4C4" stroke-width="0.686000013" x="2.46338863" y="2.23307924" width="54.9025988" height="114.48351" rx="9.14549996"></rect>
                        <rect id="Home-Button" stroke="#C2C2C2" stroke-width="0.686000013" x="21.8687628" y="108.48258" width="16.192354" height="5.00133824" rx="2.50066912"></rect>
                        <g id="Group-31-Copy" transform="translate(11.141130, 117.059590)">
                            <g id="Group-28"></g>
                        </g>
                    </g>
                    <g id="Page-1" transform="translate(122.000000, 77.000000)" stroke="#B3B3B3">
                        <path d="M19.0193802,0.499980556 L25.8474863,27.3055361 L31.5040421,27.3055361 L24.8682612,0.499980556 L19.0193802,0.499980556 Z" id="Fill-1"></path>
                        <path d="M0.5,5.33333333 L15.6388889,5.33333333 L15.6388889,0.5 L0.5,0.5 L0.5,5.33333333 Z" id="Fill-2"></path>
                        <path d="M0.5,27.3055556 L15.6388889,27.3055556 L15.6388889,22.4722222 L0.5,22.4722222 L0.5,27.3055556 Z" id="Fill-3"></path>
                        <path d="M0.694444444,15.8333333 L14.8611111,15.8333333 L14.8611111,11 L0.694444444,11 L0.694444444,15.8333333 Z" id="Fill-4"></path>
                        <path d="M30.9347802,0.499980556 L37.7628863,27.3055361 L43.419252,27.3055361 L36.7836586,0.499980556 L30.9347802,0.499980556 Z" id="Fill-5"></path>
                        <path d="M42.8501802,0.499980556 L49.6782863,27.3055361 L55.3346477,27.3055361 L48.6988668,0.499980556 L42.8501802,0.499980556 Z" id="Fill-6"></path>
                    </g>
                </g>
            </g>
        </g>
    </g>
</svg>