<svg height="180" viewBox="0 0 236 180" width="236" xmlns="http://www.w3.org/2000/svg" xmlns:xlink="http://www.w3.org/1999/xlink"><defs><rect id="a" height="180" rx="2" width="236"/><mask id="b" fill="#fff" height="180" width="236" x="0" y="0"><use xlink:href="#a"/></mask><rect id="c" height="58" rx="2" width="65"/><mask id="d" fill="#fff" height="58" width="65" x="0" y="0"><use xlink:href="#c"/></mask><rect id="e" height="58" rx="2" width="65"/><mask id="f" fill="#fff" height="58" width="65" x="0" y="0"><use xlink:href="#e"/></mask><ellipse id="g" cx="21" cy="21" rx="20.220703" ry="20.5"/><mask id="h" fill="#fff" height="41" width="40.441406" x="0" y="0"><use xlink:href="#g"/></mask><ellipse id="i" cx="21" cy="21" rx="11.79541" ry="11.958333"/><mask id="j" fill="#fff" height="23.916667" width="23.59082" x="0" y="0"><use xlink:href="#i"/></mask><ellipse id="k" cx="21" cy="21" rx="11.79541" ry="11.958333"/><mask id="l" height="39.916667" width="39.59082" x="-8" y="-8"><path d="m1.20459 1.041667h39.59082v39.916667h-39.59082z" fill="#fff"/><use xlink:href="#k"/></mask><rect id="m" height="58" rx="2" width="65"/><mask id="n" fill="#fff" height="58" width="65" x="0" y="0"><use xlink:href="#m"/></mask></defs><g fill="none" fill-rule="evenodd"><g transform=""><use fill="#fff" mask="url(#b)" stroke="#c2c2c2" stroke-width="4" xlink:href="#a"/><path d="m1 13h233v1h-233z" fill="#c2c2c2"/><g fill="#fff" stroke="#c9c9c9"><circle cx="8.754139" cy="7.614378" r="2"/><circle cx="16.633967" cy="7.614378" r="2"/><circle cx="24.513796" cy="7.614378" r="2"/></g></g><g fill="#d1d1d1"><path d="m12 36h55v6h-55z"/><path d="m12 49h145.082031v3h-145.082031z"/><path d="m12 55h145.082031v3h-145.082031z"/><path d="m12 61h88v3h-88z"/></g><g transform="translate(85 84)"><use fill="#fff" mask="url(#d)" stroke="#d1d1d1" stroke-width="2" xlink:href="#c"/><g transform="translate(1 5)"><path d="m.10205078 34.0625 8.20996094 6.7451172 7.52783208-8.6928711 6.7202148-15.1845703 5.6352539 7.9799805 8.4453125-24.24511724 7.6875 23.73144534 6.9453125 10.53125 9.1738281-5.3300781 2.6347657 4.4648437" stroke="#d9d9d9"/><circle cx="44" cy="24" fill="#ccc" r="2"/></g></g><g transform="translate(12 84)"><use fill="#fff" mask="url(#f)" stroke="#d1d1d1" stroke-width="2" xlink:href="#e"/><g transform="translate(12 8)"><use mask="url(#h)" stroke="#d9d9d9" stroke-width="2" xlink:href="#g"/><use mask="url(#j)" stroke="#d9d9d9" stroke-width="2" xlink:href="#i"/><use mask="url(#l)" stroke="#4acdd9" stroke-dasharray="11 87.919998" stroke-width="16" xlink:href="#k"/></g></g><g transform="translate(158 84)"><use fill="#fff" mask="url(#n)" stroke="#d1d1d1" stroke-width="2" xlink:href="#m"/><g fill="#d9d9d9"><path d="m0 14h65v1h-65z"/><path d="m0 28h65v1h-65z"/><path d="m0 43h65v1h-65z"/><path d="m15 0h1v58h-1z"/><path d="m32 0h1v58h-1z"/><path d="m49 0h1v58h-1z"/></g></g><path d="m2 14h232v10h-232z" fill="#e6e6e6"/></g></svg>