<?xml version="1.0" encoding="UTF-8"?>
<svg width="218px" height="184px" viewBox="0 0 218 184" version="1.1" xmlns="http://www.w3.org/2000/svg" xmlns:xlink="http://www.w3.org/1999/xlink">
    <!-- Generator: Sketch 49.3 (51167) - http://www.bohemiancoding.com/sketch -->
    <title>B2</title>
    <desc>Created with Sketch.</desc>
    <defs>
        <rect id="path-1" x="0" y="0" width="130" height="184" rx="6.54825541"></rect>
        <rect id="path-2" x="0" y="0" width="55" height="118" rx="7.44119933"></rect>
        <path d="M0.812229551,30.6652971 L0.812229551,9.37689959 C0.812229551,4.22289953 4.99037212,0.0447569604 10.1443722,0.0447569604 L50.6229441,0.0447569604 C55.7769441,0.0447569604 59.9550867,4.22289953 59.9550867,9.37689959 L59.9550867,111.649873 C59.9550867,116.803873 55.7769441,120.982015 50.6229441,120.982015 L10.1443722,120.982015 C4.99037212,120.982015 0.812229551,116.803873 0.812229551,111.649873 L0.812229551,60.6240549 L0.488690965,60.6240549 C0.250814039,60.6240549 0.0579766895,60.4312176 0.0579766895,60.1933407 L0.0579766895,41.5619291 C0.0579766895,41.3240522 0.250814039,41.1312148 0.488690965,41.1312148 L0.812229551,41.1312148 L0.812229551,38.7567786 L0.488690965,38.7567786 C0.250814039,38.7567786 0.0579766895,38.5639413 0.0579766895,38.3260643 L0.0579766895,31.0960114 C0.0579766895,30.8581344 0.250814039,30.6652971 0.488690965,30.6652971 L0.812229551,30.6652971 Z" id="path-3"></path>
    </defs>
    <g id="Desktop" stroke="none" stroke-width="1" fill="none" fill-rule="evenodd">
        <g id="works" transform="translate(-613.000000, -816.000000)">
            <g id="section3" transform="translate(180.000000, 727.000000)">
                <g id="B2" transform="translate(399.000000, 89.000000)">
                    <g id="ipad-copy" transform="translate(81.000000, 0.000000)">
                        <g id="Rectangle-33">
                            <use fill="#FFFFFF" fill-rule="evenodd" xlink:href="#path-1"></use>
                            <rect stroke="#C2C2C2" stroke-width="0.744119933" x="0.372059966" y="0.372059966" width="129.25588" height="183.25588" rx="6.54825541"></rect>
                        </g>
                        <rect id="Rectangle-34" stroke="#C2C2C2" stroke-width="0.744119933" x="7.62794003" y="15.62794" width="114.74412" height="152.74412" rx="0.44647196"></rect>
                        <ellipse id="Oval-15" stroke="#979797" stroke-width="0.744119933" cx="64.9253731" cy="176.020178" rx="4.40191071" ry="4.3817452"></ellipse>
                        <rect id="Rectangle-46" stroke="#C2C2C2" x="59.5" y="6.5" width="13" height="2" rx="1"></rect>
                        <ellipse id="Oval-17" fill="#C2C2C2" cx="56.5" cy="7.49749798" rx="1" ry="1"></ellipse>
                    </g>
                    <g id="iphone-copy" transform="translate(197.000000, 66.000000)">
                        <g id="Rectangle-30">
                            <use fill="#FFFFFF" fill-rule="evenodd" xlink:href="#path-2"></use>
                            <rect stroke="#C2C2C2" stroke-width="0.744119933" x="0.372059966" y="0.372059966" width="54.2558801" height="117.25588" rx="7.44119933"></rect>
                        </g>
                        <rect id="Rectangle-32" stroke="#C2C2C2" stroke-width="0.744119933" x="3.62794003" y="15.62794" width="47.7441199" height="86.7441199" rx="0.595295946"></rect>
                        <ellipse id="Oval-14" stroke="#C2C2C2" stroke-width="0.744119933" cx="27.4248634" cy="110.10828" rx="4.66209304" ry="4.66360882"></ellipse>
                        <rect id="Rectangle-31" stroke="#C2C2C2" stroke-width="0.744119933" x="21.62794" y="8.62794003" width="11.7441199" height="1.74411993" rx="0.872059966"></rect>
                    </g>
                    <g id="White-Outline-Mockup" transform="translate(34.000000, 63.000000)">
                        <g id="Body">
                            <use fill="#FFFFFF" fill-rule="evenodd" xlink:href="#path-3"></use>
                            <path stroke="#C2C2C2" stroke-width="0.7" d="M1.16222955,9.37689959 L1.16222955,31.0152971 L0.488690965,31.0152971 C0.444113701,31.0152971 0.407976689,31.0514341 0.407976689,31.0960114 L0.407976689,38.3260643 C0.407976689,38.3706416 0.444113701,38.4067786 0.488690965,38.4067786 L1.16222955,38.4067786 L1.16222955,41.4812148 L0.488690965,41.4812148 C0.444113701,41.4812148 0.407976689,41.5173519 0.407976689,41.5619291 L0.407976689,60.1933407 C0.407976689,60.2379179 0.444113701,60.2740549 0.488690965,60.2740549 L1.16222955,60.2740549 L1.16222955,111.649873 C1.16222955,116.610573 5.18367179,120.632015 10.1443722,120.632015 L50.6229441,120.632015 C55.5836445,120.632015 59.6050867,116.610573 59.6050867,111.649873 L59.6050867,9.37689959 C59.6050867,4.4161992 55.5836445,0.39475696 50.6229441,0.39475696 L10.1443722,0.39475696 C5.18367179,0.39475696 1.16222955,4.4161992 1.16222955,9.37689959 Z"></path>
                        </g>
                        <rect id="Screen-Area" stroke="#C2C2C2" stroke-width="0.7" x="4.72915546" y="14.5009092" width="51.3035084" height="92.2809861" rx="0.143571425"></rect>
                        <g id="Group-31" transform="translate(11.329963, 0.285794)">
                            <g id="Group-28"></g>
                        </g>
                        <g id="Mic-and-Camera" transform="translate(19.935579, 7.649755)" stroke="#C2C2C2" stroke-width="0.5">
                            <ellipse id="Oval-9" cx="0.969787623" cy="1.08147513" rx="1" ry="1"></ellipse>
                            <rect id="Rectangle-8" x="5.3632272" y="0.2624773" width="10.3480273" height="1.6217188" rx="0.810859401"></rect>
                        </g>
                        <rect id="Rectangle-6-Copy" stroke="#C4C4C4" stroke-width="0.7" x="2.50632742" y="2.27184527" width="55.8307784" height="116.405132" rx="9.33214263"></rect>
                        <rect id="Home-Button" stroke="#C2C2C2" stroke-width="0.7" x="22.2406062" y="110.307052" width="16.4644278" height="5.08292377" rx="2.54146188"></rect>
                        <g id="Group-31-Copy" transform="translate(11.329963, 119.026978)">
                            <g id="Group-28"></g>
                        </g>
                    </g>
                    <g id="Page-1" transform="translate(118.000000, 78.000000)" stroke="#B3B3B3">
                        <path d="M19.0193802,0.499980556 L25.8474863,27.3055361 L31.5040421,27.3055361 L24.8682612,0.499980556 L19.0193802,0.499980556 Z" id="Fill-1"></path>
                        <path d="M0.5,5.33333333 L15.6388889,5.33333333 L15.6388889,0.5 L0.5,0.5 L0.5,5.33333333 Z" id="Fill-2"></path>
                        <path d="M0.5,27.3055556 L15.6388889,27.3055556 L15.6388889,22.4722222 L0.5,22.4722222 L0.5,27.3055556 Z" id="Fill-3"></path>
                        <path d="M0.694444444,15.8333333 L14.8611111,15.8333333 L14.8611111,11 L0.694444444,11 L0.694444444,15.8333333 Z" id="Fill-4"></path>
                        <path d="M30.9347802,0.499980556 L37.7628863,27.3055361 L43.419252,27.3055361 L36.7836586,0.499980556 L30.9347802,0.499980556 Z" id="Fill-5"></path>
                        <path d="M42.8501802,0.499980556 L49.6782863,27.3055361 L55.3346477,27.3055361 L48.6988668,0.499980556 L42.8501802,0.499980556 Z" id="Fill-6"></path>
                    </g>
                </g>
            </g>
        </g>
    </g>
</svg>