<?xml version="1.0" encoding="UTF-8" standalone="no"?>
<svg width="88px" height="44px" viewBox="0 0 88 44" version="1.1" xmlns="http://www.w3.org/2000/svg" xmlns:xlink="http://www.w3.org/1999/xlink">
    <!-- Generator: Sketch 3.8.3 (29802) - http://www.bohemiancoding.com/sketch -->
    <title>logo</title>
    <desc>Created with Sketch.</desc>
    <defs></defs>
    <g id="Page-1" stroke="none" stroke-width="1" fill="none" fill-rule="evenodd">
        <g id="works" transform="translate(-181.000000, -50.000000)" fill="#4C4C4C">
            <g id="section1" transform="translate(179.000000, 50.000000)">
                <g id="logo" transform="translate(2.000000, 0.000000)">
                    <polygon id="Fill-1" points="28.87665 -3.05555556e-05 40.0068167 43.6944139 50.5102889 43.6944139 39.6936222 -3.05555556e-05"></polygon>
                    <polygon id="Fill-2" points="0 9.16666667 25.3611111 9.16666667 25.3611111 0 0 0"></polygon>
                    <polygon id="Fill-3" points="0 43.6944444 25.3611111 43.6944444 25.3611111 34.5277778 0 34.5277778"></polygon>
                    <polygon id="Fill-4" points="0.305555556 25.6666667 24.1388889 25.6666667 24.1388889 16.5 0.305555556 16.5"></polygon>
                    <polygon id="Fill-5" points="47.60085 -3.05555556e-05 58.7310167 43.6944139 69.2341833 43.6944139 58.4178222 -3.05555556e-05"></polygon>
                    <polygon id="Fill-6" points="66.32505 -3.05555556e-05 77.4552167 43.6944139 87.9583833 43.6944139 77.1417167 -3.05555556e-05"></polygon>
                </g>
            </g>
        </g>
    </g>
</svg>